<svg xmlns="http://www.w3.org/2000/svg" viewBox="0 0 24 18" fill="none">
  <rect width="24" height="18" fill="#B22234"/>
  <path d="M0 0h24v2H0zM0 4h24v2H0zM0 8h24v2H0zM0 12h24v2H0zM0 16h24v2H0z" fill="white"/>
  <rect width="10" height="10" fill="#3C3B6E"/>
  <g fill="white">
    <circle cx="2" cy="1.5" r="0.4"/>
    <circle cx="4" cy="1.5" r="0.4"/>
    <circle cx="6" cy="1.5" r="0.4"/>
    <circle cx="8" cy="1.5" r="0.4"/>
    <circle cx="3" cy="3" r="0.4"/>
    <circle cx="5" cy="3" r="0.4"/>
    <circle cx="7" cy="3" r="0.4"/>
    <circle cx="2" cy="4.5" r="0.4"/>
    <circle cx="4" cy="4.5" r="0.4"/>
    <circle cx="6" cy="4.5" r="0.4"/>
    <circle cx="8" cy="4.5" r="0.4"/>
    <circle cx="3" cy="6" r="0.4"/>
    <circle cx="5" cy="6" r="0.4"/>
    <circle cx="7" cy="6" r="0.4"/>
    <circle cx="2" cy="7.5" r="0.4"/>
    <circle cx="4" cy="7.5" r="0.4"/>
    <circle cx="6" cy="7.5" r="0.4"/>
    <circle cx="8" cy="7.5" r="0.4"/>
  </g>
</svg>
