<?xml version="1.0" encoding="utf-8"?>
<!-- Generator: Adobe Illustrator 15.1.0, SVG Export Plug-In . SVG Version: 6.00 Build 0)  -->
<!DOCTYPE svg PUBLIC "-//W3C//DTD SVG 1.1//EN" "http://www.w3.org/Graphics/SVG/1.1/DTD/svg11.dtd">
<svg version="1.1" id="Layer_1" xmlns="http://www.w3.org/2000/svg" xmlns:xlink="http://www.w3.org/1999/xlink" x="0px" y="0px"
	 width="1151.02px" height="462.304px" viewBox="0 0 1151.02 462.304" enable-background="new 0 0 1151.02 462.304"
	 xml:space="preserve">
<g>
	<defs>
		<rect id="SVGID_1_" x="889.049" y="-191.848" width="264.883" height="106.39"/>
	</defs>
	<clipPath id="SVGID_2_">
		<use xlink:href="#SVGID_1_"  overflow="visible"/>
	</clipPath>
	<path clip-path="url(#SVGID_2_)" d="M1029.18-167.577c16.605,0.427,35.477,9.707,43.098,16.269
		c0.408-9.979-14.207-29.048-37.82-33.048c-36.08-6.112-62.723,21.091-91.225,40.348c-28.5,19.256-47.34,14.977-47.34,14.977
		s0.41,15.386,33.014,7.389C961.51-129.641,997.258-168.396,1029.18-167.577"/>
	<path clip-path="url(#SVGID_2_)" d="M1072.83-128.068c-0.676-8.749-15.182-21.737-36.098-23.514
		c-20.916-1.777-47.299,15.585-65.48,26.794c-18.184,11.21-36.637,10.526-36.637,10.526c8.064,12.03,26.689,10.423,41.693,4.101
		c16.572-6.983,31.988-21.873,53.18-26.793C1050.676-141.875,1072.83-128.068,1072.83-128.068"/>
	<path clip-path="url(#SVGID_2_)" d="M1084.547-109.58c-33.426-14.148-50.754-32.672-92.176,2.394c0,0,7.041,3.109,15.619-2.257
		c11.203-7.007,32.502-10.833,53.314,1.915c34.432,21.087,77.615,21.223,85.783-3.486
		C1147.088-111.014,1117.969-95.43,1084.547-109.58"/>
</g>
<g>
	<g>
		<path d="M497.176-111.031v21.897h-9.284v-21.897c0-2.572-0.94-4.739-2.82-6.53c-1.895-1.778-4.192-2.666-6.896-2.666
			c-2.716,0-5.015,0.888-6.907,2.666c-1.88,1.791-2.833,3.958-2.833,6.53v21.897h-9.272v-38.621h9.272v4.263
			c3.251-3.676,7.26-5.517,12.026-5.517c4.661,0,8.605,1.756,11.843,5.269S497.176-115.993,497.176-111.031"/>
		<polygon points="521.843,-127.754 531.557,-127.754 531.557,-118.973 521.843,-118.973 521.843,-89.133 512.558,-89.133 
			512.558,-118.973 503.718,-118.973 503.718,-127.754 512.558,-127.754 512.558,-136.537 521.843,-140.957 		"/>
		<path d="M559.749-96.654c4.596,0,8.318-1.397,11.139-4.18l6.646,6.189c-4.78,4.505-10.707,6.764-17.785,6.764
			c-6.411,0-11.961-1.945-16.609-5.849c-2.232-1.945-3.983-4.127-5.223-6.53c-1.293-2.494-1.946-5.234-1.946-8.187
			c0-5.681,2.01-10.508,6.02-14.458c4.008-4.068,8.919-6.104,14.768-6.104c5.824,0,10.746,2.036,14.755,6.104
			c4.009,3.95,6.021,8.777,6.021,14.458c0,1.396-0.132,2.651-0.366,3.772h-31.117c1.006,2.39,2.755,4.323,5.263,5.799
			C553.821-97.399,556.628-96.654,559.749-96.654 M563.471-117.978c-2.01-1.498-4.244-2.249-6.712-2.249
			c-2.48,0-4.727,0.751-6.725,2.249c-1.998,1.516-3.382,3.435-4.166,5.771h21.754C566.853-114.543,565.469-116.462,563.471-117.978"
			/>
		<rect x="586.361" y="-147.694" width="9.283" height="58.561"/>
		<path d="M617.478-141.387c0,1.456-0.522,2.689-1.593,3.729c-1.059,1.031-2.352,1.54-3.893,1.54c-1.527,0-2.846-0.509-3.93-1.54
			c-1.097-1.039-1.632-2.272-1.632-3.729c0-1.443,0.535-2.664,1.632-3.677c1.084-0.998,2.402-1.494,3.93-1.494
			c1.477,0,2.756,0.51,3.853,1.541C616.93-143.986,617.478-142.778,617.478-141.387 M616.59-89.133h-9.271v-38.621h9.271V-89.133z"
			/>
		<polygon points="658.936,-111.868 688.72,-147.237 688.72,-89.133 678.563,-89.133 678.563,-119.809 658.936,-96.485 
			639.232,-119.809 639.232,-89.133 629.061,-89.133 629.061,-147.237 		"/>
		<path d="M707.289-89.133H696.06l28.649-58.104l28.543,58.104h-11.23l-4.596-9.439h-25.541L707.289-89.133z M724.709-124.491
			l-8.059,16.385h16.009L724.709-124.491z"/>
		<path d="M785.335-119.646c2.364,0,4.374-0.823,6.044-2.461c1.698-1.652,2.535-3.611,2.535-5.896c0-2.292-0.837-4.251-2.535-5.896
			c-1.67-1.639-3.68-2.469-6.044-2.469H770.75v47.234h-10.174v-56.844h24.759c5.249,0,9.661,1.756,13.253,5.269
			c3.656,3.56,5.497,7.796,5.497,12.706c0,4.896-1.813,9.134-5.405,12.702c-2.234,2.128-4.831,3.604-7.783,4.426l16.088,21.741
			h-12.365l-22.539-30.513H785.335z"/>
		<rect x="815.212" y="-145.977" width="10.17" height="56.844"/>
		<path d="M870.9-120.651c4.951,2.96,7.418,7.531,7.418,13.721c0,2.676-0.561,5.144-1.672,7.443
			c-1.123,2.271-2.715,4.309-4.766,6.098c-4.244,3.668-9.52,5.509-15.838,5.509c-3.893,0-7.627-0.717-11.217-2.167
			c-3.604-1.514-6.844-3.709-9.729-6.606l7.43-6.595c3.773,3.838,8.279,5.758,13.516,5.758c3.605,0,6.605-1.005,9.023-3.016
			c2.063-1.777,3.094-3.918,3.094-6.424c0-2.625-0.744-4.402-2.207-5.354c-1.477-0.953-4.662-1.842-9.545-2.677
			c-5.719-1.059-9.754-2.259-12.117-3.591c-2.234-1.289-3.982-2.935-5.211-4.939c-1.293-2.278-1.945-4.877-1.945-7.775
			c0-2.228,0.471-4.401,1.41-6.522c0.822-1.945,2.182-3.702,4.074-5.269c3.408-2.782,7.9-4.179,13.424-4.179
			c3.082,0,6.332,0.477,9.781,1.423c3.445,0.947,6.527,2.403,9.23,4.35l-6.189,7.604c-3.408-2.508-7.691-3.768-12.822-3.768
			c-2.939,0-5.211,0.621-6.805,1.842c-1.291,1.124-1.932,2.625-1.932,4.519c0,2.174,0.73,3.682,2.207,4.518
			c1.475,0.836,4.35,1.586,8.672,2.259C864.008-123.492,868.25-122.206,870.9-120.651"/>
		<rect x="439.892" y="-145.977" width="10.159" height="56.844"/>
		<text transform="matrix(1 0 0 1 875.4092 -147.0103)" font-family="'Helvetica'" font-size="12.293">®</text>
	</g>
</g>
<g>
	<defs>
		<rect id="SVGID_3_" x="229.534" y="36.114" width="630.412" height="253.205"/>
	</defs>
	<clipPath id="SVGID_4_">
		<use xlink:href="#SVGID_3_"  overflow="visible"/>
	</clipPath>
	<path clip-path="url(#SVGID_4_)" d="M563.043,93.88c39.518,1.016,84.433,23.103,102.567,38.718
		c0.972-23.75-33.809-69.132-90.009-78.653c-85.872-14.546-149.278,50.196-217.112,96.026
		c-67.831,45.83-112.669,35.644-112.669,35.644s0.975,36.619,78.574,17.586C401.989,184.165,487.068,91.93,563.043,93.88"/>
	<path clip-path="url(#SVGID_4_)" d="M666.929,187.909c-1.607-20.822-36.134-51.733-85.913-55.962
		c-49.778-4.23-112.57,37.092-155.843,63.769c-43.273,26.679-87.194,25.053-87.194,25.053c19.196,28.631,63.523,24.806,99.231,9.759
		c39.442-16.62,76.132-52.057,126.564-63.767C614.203,155.048,666.929,187.909,666.929,187.909"/>
	<path clip-path="url(#SVGID_4_)" d="M694.812,231.912c-79.551-33.673-120.789-77.758-219.373,5.695c0,0,16.755,7.401,37.174-5.371
		c26.661-16.676,77.351-25.782,126.885,4.559c81.945,50.186,184.724,50.51,204.16-8.298
		C843.658,228.497,774.357,265.587,694.812,231.912"/>
</g>
<g>
	<g>
		<path d="M252.32,386.477v41.101h-17.424v-41.101c0-4.828-1.765-8.896-5.294-12.257c-3.556-3.338-7.867-5.005-12.942-5.005
			c-5.098,0-9.413,1.667-12.965,5.005c-3.53,3.361-5.319,7.429-5.319,12.257v41.101h-17.402v-72.49h17.402v8.001
			c6.104-6.899,13.626-10.354,22.573-10.354c8.749,0,16.15,3.296,22.229,9.889S252.32,377.164,252.32,386.477"/>
		<polygon points="298.619,355.087 316.852,355.087 316.852,371.569 298.619,371.569 298.619,427.578 281.189,427.578 
			281.189,371.569 264.599,371.569 264.599,355.087 281.189,355.087 281.189,338.603 298.619,330.307 		"/>
		<path d="M369.766,413.461c8.628,0,15.613-2.623,20.909-7.845l12.474,11.617c-8.971,8.456-20.097,12.695-33.382,12.695
			c-12.032,0-22.45-3.651-31.175-10.978c-4.19-3.651-7.475-7.746-9.802-12.257c-2.427-4.682-3.651-9.825-3.651-15.366
			c0-10.662,3.772-19.723,11.298-27.137c7.522-7.637,16.74-11.458,27.718-11.458c10.932,0,20.17,3.821,27.696,11.458
			c7.523,7.414,11.299,16.475,11.299,27.137c0,2.621-0.246,4.977-0.686,7.081h-58.406c1.888,4.485,5.172,8.114,9.879,10.884
			C358.64,412.063,363.908,413.461,369.766,413.461 M376.753,373.437c-3.774-2.812-7.966-4.222-12.6-4.222
			c-4.656,0-8.872,1.41-12.622,4.222c-3.75,2.845-6.346,6.446-7.817,10.833h40.833C383.099,379.883,380.503,376.282,376.753,373.437
			"/>
		<rect x="419.716" y="317.662" width="17.426" height="109.916"/>
		<path d="M478.12,329.499c0,2.733-0.979,5.049-2.988,6.999c-1.987,1.936-4.414,2.891-7.306,2.891c-2.867,0-5.341-0.955-7.376-2.891
			c-2.061-1.95-3.065-4.266-3.065-6.999c0-2.709,1.004-5,3.065-6.9c2.035-1.874,4.509-2.805,7.376-2.805
			c2.771,0,5.172,0.957,7.229,2.893C477.092,324.622,478.12,326.889,478.12,329.499 M476.456,427.578h-17.402v-72.49h17.402V427.578
			z"/>
		<polygon points="555.937,384.906 611.839,318.519 611.839,427.578 592.773,427.578 592.773,370 555.937,413.779 518.953,370 
			518.953,427.578 499.861,427.578 499.861,318.519 		"/>
		<path d="M646.694,427.578h-21.079l53.773-109.059l53.576,109.059h-21.079l-8.628-17.718H655.32L646.694,427.578z M679.389,361.213
			l-15.123,30.753h30.046L679.389,361.213z"/>
		<path d="M793.182,370.306c4.438,0,8.21-1.545,11.346-4.619c3.187-3.102,4.759-6.778,4.759-11.065
			c0-4.302-1.572-7.979-4.759-11.067c-3.136-3.076-6.908-4.634-11.346-4.634h-27.375v88.657h-19.095V320.884h46.47
			c9.854,0,18.136,3.295,24.877,9.889c6.863,6.681,10.316,14.633,10.316,23.849c0,9.188-3.404,17.144-10.144,23.842
			c-4.194,3.994-9.069,6.764-14.611,8.307l30.198,40.808h-23.211l-42.303-57.271H793.182z"/>
		<rect x="849.26" y="320.884" width="19.089" height="106.693"/>
		<path d="M953.787,368.42c9.293,5.556,13.923,14.136,13.923,25.753c0,5.022-1.052,9.654-3.138,13.971
			c-2.108,4.262-5.096,8.087-8.945,11.445c-7.966,6.885-17.868,10.34-29.729,10.34c-7.305,0-14.314-1.346-21.052-4.067
			c-6.764-2.841-12.846-6.962-18.261-12.4l13.945-12.378c7.083,7.204,15.54,10.808,25.367,10.808c6.767,0,12.399-1.887,16.937-5.66
			c3.871-3.336,5.809-7.354,5.809-12.058c0-4.927-1.397-8.263-4.145-10.05c-2.77-1.789-8.749-3.457-17.915-5.024
			c-10.734-1.987-18.309-4.239-22.742-6.74c-4.193-2.419-7.475-5.508-9.78-9.271c-2.427-4.276-3.651-9.154-3.651-14.595
			c0-4.181,0.883-8.261,2.646-12.242c1.543-3.651,4.093-6.948,7.647-9.889c6.396-5.223,14.828-7.844,25.194-7.844
			c5.784,0,11.887,0.895,18.358,2.671c6.469,1.778,12.252,4.511,17.327,8.164l-11.617,14.273
			c-6.397-4.707-14.437-7.071-24.068-7.071c-5.516,0-9.781,1.165-12.771,3.457c-2.424,2.109-3.626,4.927-3.626,8.48
			c0,4.08,1.371,6.911,4.143,8.479c2.768,1.569,8.162,2.977,16.275,4.24C940.848,363.088,948.812,365.502,953.787,368.42"/>
		<rect x="144.8" y="320.884" width="19.068" height="106.693"/>
		<text transform="matrix(1 0 0 1 962.249 318.9448)" font-family="'Helvetica'" font-size="23.0734">®</text>
	</g>
</g>
</svg>
